# xmcd
#
# Track frame offsets: 
#        150
#        23837
#        41685
#        62523
#        80891
#        101034
#        121928
#        140526
#        158207
#        179373
#        201085
#        221055
#        229003
#        247885
#        265024
#        289108
#
# Disc length: 4173 seconds
#
# Revision: 2
# Processed by: cddbd v1.5.2PL0 Copyright (c) Steve Scherf et al.
# Submitted via: ExactAudioCopyFreeDBPlugin 1.0
#
DISCID=e4104b10
DTITLE=Lloyd - Southside
DYEAR=2004
DGENRE=R&B
TTITLE0=ATL Tales - Ride Wit Me Feat. Ja Rule
TTITLE1=Hey Young Girl
TTITLE2=Southside Feat. Ashanti
TTITLE3=Feelin' You
TTITLE4=Take It Low
TTITLE5=Hustler Feat. Chink Santana
TTITLE6=My Life
TTITLE7=Caddilac Love Feat. Taniya Walter
TTITLE8=Trance Feat. Lil' Wayne
TTITLE9=Feels So Right
TTITLE10=This Way
TTITLE11=Miss Lady (Interlude)
TTITLE12=Sweet Dreams
TTITLE13=I'm A G
TTITLE14=Yesterday
TTITLE15=Southside Remix Feat. Ashanti and Scarface
EXTD=The INC presents: Lloyd SouthSide (Parental Advisory Explict Cont
EXTD=ent)
EXTT0=
EXTT1=
EXTT2=
EXTT3=
EXTT4=
EXTT5=
EXTT6=
EXTT7=
EXTT8=
EXTT9=
EXTT10=
EXTT11=
EXTT12=
EXTT13=
EXTT14=
EXTT15=
PLAYORDER=
